<?xml version="1.0" encoding="UTF-8"?>
<svg width="19px" height="18px" viewBox="0 0 19 18" version="1.1" xmlns="http://www.w3.org/2000/svg" xmlns:xlink="http://www.w3.org/1999/xlink">
    <!-- Generator: Sketch 54.1 (76490) - https://sketchapp.com -->
    <title>close</title>
    <desc>Created with Sketch.</desc>
    <defs>
        <rect id="path-1" x="0" y="0" width="20" height="20"></rect>
    </defs>
    <g id="Landing" stroke="none" stroke-width="1" fill="none" fill-rule="evenodd">
        <g id="Contact-Us" transform="translate(-1180.000000, -125.000000)">
            <g id="close" transform="translate(1173.000000, 118.000000)">
                <rect id="Rectangle" x="0" y="0" width="32" height="32"></rect>
                <g id="Group-5" transform="translate(6.000000, 6.000000)">
                    <mask id="mask-2" fill="white">
                        <use xlink:href="#path-1"></use>
                    </mask>
                    <g id="Mask"></g>
                    <g mask="url(#mask-2)" fill="#C0C1C9" id="Carot">
                        <g transform="translate(10.500000, 10.000000) rotate(-315.000000) translate(-10.500000, -10.000000) translate(-2.000000, -2.000000)">
                            <path d="M12.5,0 L12.5,0 C13.3284271,-1.52179594e-16 14,0.671572875 14,1.5 L14,22.5 C14,23.3284271 13.3284271,24 12.5,24 L12.5,24 C11.6715729,24 11,23.3284271 11,22.5 L11,1.5 C11,0.671572875 11.6715729,1.52179594e-16 12.5,0 Z"></path>
                            <path d="M12.5,0 L12.5,0 C13.3284271,-1.52179594e-16 14,0.671572875 14,1.5 L14,22.5 C14,23.3284271 13.3284271,24 12.5,24 L12.5,24 C11.6715729,24 11,23.3284271 11,22.5 L11,1.5 C11,0.671572875 11.6715729,1.52179594e-16 12.5,0 Z" transform="translate(12.500000, 12.000000) rotate(-270.000000) translate(-12.500000, -12.000000) "></path>
                        </g>
                    </g>
                </g>
            </g>
        </g>
    </g>
</svg>