<?xml version="1.0" encoding="UTF-8"?>
<svg width="46px" height="42px" viewBox="0 0 46 42" version="1.1"
  xmlns="http://www.w3.org/2000/svg"
  xmlns:xlink="http://www.w3.org/1999/xlink">
  <!-- Generator: Sketch 54.1 (76490) - https://sketchapp.com -->
  <title>Group 2</title>
  <desc>Created with Sketch.</desc>
  <defs>
    <linearGradient x1="0%" y1="41.4321324%" x2="100%" y2="41.4321324%" id="linearGradient-1">
      <stop stop-color="#00DCAF" offset="0%"></stop>
      <stop stop-color="#00C2DA" offset="100%"></stop>
    </linearGradient>
  </defs>
  <g id="Landing" stroke="none" stroke-width="1" fill="none" fill-rule="evenodd">
    <g transform="translate(-817.000000, -923.000000)" fill="url(#linearGradient-1)" id="Group-2">
      <g transform="translate(817.000000, 923.000000)">
        <path d="M41.1260097,0.657516543 C42.4197886,-0.377520724 44.3076672,-0.167769181 45.3427044,1.12600973 C46.3777417,2.41978863 46.1679901,4.30766715 44.8742112,5.34270442 L24.8744845,21.3427044 C23.7788344,22.2192365 22.221976,22.2192469 21.1263142,21.3427294 L1.12604095,5.3427294 C-0.167751752,4.30770938 -0.377528459,2.41983365 0.657491563,1.12604095 C1.69251158,-0.167751752 3.58038731,-0.377528459 4.87418001,0.657491563 L23.0003581,15.1582359 L41.1260097,0.657516543 Z" id="Path"></path>
        <path d="M41.1260097,20.6575165 C42.4197886,19.6224793 44.3076672,19.8322308 45.3427044,21.1260097 C46.3777417,22.4197886 46.1679901,24.3076672 44.8742112,25.3427044 L24.8744845,41.3427044 C23.7788344,42.2192365 22.221976,42.2192469 21.1263142,41.3427294 L1.12604095,25.3427294 C-0.167751752,24.3077094 -0.377528459,22.4198337 0.657491563,21.126041 C1.69251158,19.8322482 3.58038731,19.6224715 4.87418001,20.6574916 L23.0003581,35.1582359 L41.1260097,20.6575165 Z" id="Path"></path>
      </g>
    </g>
  </g>
</svg>