<?xml version="1.0" encoding="UTF-8"?>
<svg width="25px" height="24px" viewBox="0 0 25 24" version="1.1" xmlns="http://www.w3.org/2000/svg" xmlns:xlink="http://www.w3.org/1999/xlink">
    <!-- Generator: Sketch 54.1 (76490) - https://sketchapp.com -->
    <title>plus</title>
    <desc>Created with Sketch.</desc>
    <g id="Landing" stroke="none" stroke-width="1" fill="none" fill-rule="evenodd">
        <g id="FAQ_Landing" transform="translate(-1386.000000, -1588.000000)">
            <g id="plus" transform="translate(1382.000000, 1584.000000)">
                <g id="Group-5" transform="translate(4.000000, 4.000000)" fill="#C0C1C9">
                    <path d="M12.5,0 L12.5,0 C13.3284271,-1.52179594e-16 14,0.671572875 14,1.5 L14,22.5 C14,23.3284271 13.3284271,24 12.5,24 L12.5,24 C11.6715729,24 11,23.3284271 11,22.5 L11,1.5 C11,0.671572875 11.6715729,1.52179594e-16 12.5,0 Z" id="Carot"></path>
                    <path d="M12.5,0 L12.5,0 C13.3284271,-1.52179594e-16 14,0.671572875 14,1.5 L14,22.5 C14,23.3284271 13.3284271,24 12.5,24 L12.5,24 C11.6715729,24 11,23.3284271 11,22.5 L11,1.5 C11,0.671572875 11.6715729,1.52179594e-16 12.5,0 Z" id="Carot" transform="translate(12.500000, 12.000000) rotate(-270.000000) translate(-12.500000, -12.000000) "></path>
                </g>
                <rect id="Rectangle" x="0" y="0" width="32" height="32"></rect>
            </g>
        </g>
    </g>
</svg>