<?xml version="1.0" encoding="UTF-8"?>
<svg width="35px" height="32px" viewBox="0 0 35 32" version="1.1" xmlns="http://www.w3.org/2000/svg" xmlns:xlink="http://www.w3.org/1999/xlink">
    <!-- Generator: Sketch 54.1 (76490) - https://sketchapp.com -->
    <title>upload</title>
    <desc>Created with Sketch.</desc>
    <g id="Landing" stroke="none" stroke-width="1" fill="none" fill-rule="evenodd">
        <g id="Job" transform="translate(-822.000000, -788.000000)" fill="#C0C1C9" fill-rule="nonzero">
            <g id="Group-7" transform="translate(744.000000, 788.000000)">
                <g id="upload" transform="translate(78.000000, 0.000000)">
                    <path d="M33.5157895,15.608238 C32.9665904,15.608238 32.5272311,16.0475973 32.5272311,16.5967963 L32.5272311,25.589016 C32.5272311,28.0347826 30.5354691,30.019222 28.0970252,30.019222 L6.40732265,30.019222 C3.96155606,30.019222 1.9771167,28.02746 1.9771167,25.589016 L1.9771167,16.4503432 C1.9771167,15.9011442 1.53775744,15.4617849 0.988558352,15.4617849 C0.439359268,15.4617849 0,15.9011442 0,16.4503432 L0,25.589016 C0,29.1258581 2.8778032,31.9963387 6.40732265,31.9963387 L28.0970252,31.9963387 C31.6338673,31.9963387 34.5043478,29.1185355 34.5043478,25.589016 L34.5043478,16.5967963 C34.5043478,16.0549199 34.0649886,15.608238 33.5157895,15.608238 Z" id="Path"></path>
                    <path d="M11.6649886,7.99267735 L16.2636156,3.39405034 L16.2636156,23.4508009 C16.2636156,24 16.7029748,24.4393593 17.2521739,24.4393593 C17.801373,24.4393593 18.2407323,24 18.2407323,23.4508009 L18.2407323,3.39405034 L22.8393593,7.99267735 C23.0297483,8.18306636 23.2860412,8.28558352 23.5350114,8.28558352 C23.7913043,8.28558352 24.0402746,8.19038902 24.2306636,7.99267735 C24.6187643,7.60457666 24.6187643,6.98215103 24.2306636,6.59405034 L17.9478261,0.311212815 C17.7647597,0.128146453 17.5084668,0.0183066362 17.2521739,0.0183066362 C16.9885584,0.0183066362 16.7395881,0.120823799 16.5565217,0.311212815 L10.2736842,6.59405034 C9.88558352,6.98215103 9.88558352,7.60457666 10.2736842,7.99267735 C10.6544622,8.37345538 11.2842105,8.37345538 11.6649886,7.99267735 Z" id="Path"></path>
                </g>
            </g>
        </g>
    </g>
</svg>